<svg width="31" height="29" viewBox="0 0 31 29" fill="none" xmlns="http://www.w3.org/2000/svg">
<path fill-rule="evenodd" clip-rule="evenodd" d="M9.68104 23.2582C10.2077 23.2582 10.6358 23.6607 10.6358 24.1559C10.6358 24.6511 10.2077 25.0524 9.68104 25.0524C9.15437 25.0524 8.72754 24.6511 8.72754 24.1559C8.72754 23.6607 9.15437 23.2582 9.68104 23.2582Z" stroke="#323232" stroke-width="1.5" stroke-linecap="round" stroke-linejoin="round"/>
<path fill-rule="evenodd" clip-rule="evenodd" d="M23.7245 23.2582C24.2512 23.2582 24.6793 23.6607 24.6793 24.1559C24.6793 24.6511 24.2512 25.0524 23.7245 25.0524C23.1979 25.0524 22.7698 24.6511 22.7698 24.1559C22.7698 23.6607 23.1979 23.2582 23.7245 23.2582Z" stroke="#323232" stroke-width="1.5" stroke-linecap="round" stroke-linejoin="round"/>
<path d="M3.84973 3.81374L6.44566 4.23618L7.64752 17.6992C7.74487 18.7964 8.71959 19.6389 9.89025 19.6389H23.5089C24.6271 19.6389 25.5756 18.8668 25.7366 17.8248L26.921 10.1293C27.067 9.17994 26.2845 8.33036 25.2649 8.33036H6.8625" stroke="#323232" stroke-width="1.5" stroke-linecap="round" stroke-linejoin="round"/>
<path d="M18.0468 12.6674H21.5076" stroke="#323232" stroke-width="1.5" stroke-linecap="round" stroke-linejoin="round"/>
</svg>
