<svg width="28" height="28" viewBox="0 0 28 28" fill="none" xmlns="http://www.w3.org/2000/svg">
<g clip-path="url(#clip0)">
<path d="M4.94466 17.1449C4.92202 17.1449 4.96775 17.1478 4.94466 17.1449V17.1449Z" fill="#F35700"/>
<path d="M26.9372 24.7207C25.0406 24.7207 23.1704 24.5101 21.3557 24.1056C21.5994 23.4279 21.7302 22.7048 21.7375 21.9613C21.7543 20.2634 21.1237 18.6789 19.9618 17.4996C19.1909 16.7172 18.2277 16.1476 17.1766 15.8524C17.1675 15.8499 17.1584 15.8476 17.1492 15.8455C14.4954 15.103 12.0965 13.8029 10.0192 11.981C9.79202 11.7818 9.44653 11.8045 9.24734 12.0316C9.04821 12.2586 9.0708 12.6042 9.29793 12.8034C10.0549 13.4672 10.8522 14.0657 11.6869 14.5973C12.1813 15.5527 12.4253 16.6229 12.3928 17.7042C12.3837 18.0062 12.6211 18.2583 12.923 18.2674C12.9286 18.2675 12.9342 18.2676 12.9397 18.2676C13.2342 18.2676 13.4772 18.0334 13.4861 17.7371C13.5093 16.9667 13.4122 16.2012 13.2028 15.4674C14.1046 15.9319 15.0441 16.3248 16.0182 16.6444C16.5805 17.5562 16.904 18.5948 16.9553 19.6606C16.9693 19.9534 17.2111 20.1812 17.5011 20.1812C17.51 20.1812 17.5189 20.181 17.5278 20.1806C17.8295 20.166 18.0623 19.9097 18.0478 19.608C18.0065 18.7498 17.8142 17.9072 17.4852 17.1172C18.1175 17.3832 18.6962 17.7737 19.1825 18.2673C20.6546 19.7613 21.0202 21.9665 20.2899 23.8442C14.4934 22.2896 9.34032 18.731 5.82851 13.6886C5.65584 13.4407 5.31506 13.3798 5.06714 13.5523C4.81928 13.7249 4.7583 14.0658 4.9309 14.3137C7.35156 17.7894 10.6022 20.6792 14.3314 22.6705C16.0584 23.5926 17.8875 24.3192 19.7759 24.841C19.5902 25.1231 19.3755 25.3917 19.1309 25.6414C17.987 26.7338 16.2703 27.1693 14.7545 26.7509C12.9729 26.2592 11.2784 25.4893 9.73415 24.4791C10.239 24.4287 10.7393 24.3266 11.232 24.1705C11.5199 24.0793 11.6794 23.7719 11.5883 23.484C11.497 23.1961 11.1898 23.0366 10.9017 23.1277C10.0286 23.4043 9.12762 23.4862 8.22127 23.3724C7.74906 22.9879 7.29512 22.5789 6.86245 22.1462C5.26354 20.5473 4.01952 18.6921 3.14533 16.6963C3.70898 16.9163 4.33307 17.0681 4.94458 17.1447C5.21629 17.1447 5.48625 16.9445 5.52086 16.6678C5.55844 16.3681 5.34591 16.0947 5.04614 16.0572C4.15953 15.9461 3.32625 15.6557 2.56576 15.1938C1.17254 11.0386 1.30506 6.42506 3.09928 2.29922C3.6247 4.71189 4.60954 7.0218 5.98985 9.05918C6.15928 9.30917 6.49925 9.37464 6.74941 9.2052C6.99946 9.03577 7.06487 8.69575 6.89543 8.44564C5.29286 6.08022 4.2553 3.32507 3.8951 0.478311C3.8654 0.24341 3.68787 0.0542855 3.45527 0.0098211C3.22277 -0.0348074 2.98793 0.0755059 2.87356 0.282897C1.88857 2.06886 1.20147 3.99532 0.831265 6.00863C0.466471 7.99258 0.417795 10.0128 0.68655 12.0132C1.24545 16.1729 3.11361 19.9444 6.089 22.9199C8.4151 25.246 11.311 26.9353 14.4635 27.8055C14.9381 27.9365 15.4285 28 15.9194 28C17.3696 28 18.8232 27.4451 19.8815 26.437C19.8876 26.4314 19.894 26.4264 19.9 26.4205C19.9053 26.4153 19.9097 26.4098 19.9147 26.4045C20.2947 26.0161 20.6194 25.5854 20.8852 25.1227C22.8633 25.5799 24.8964 25.8147 26.9372 25.8147C27.2393 25.8147 27.4841 25.5698 27.4841 25.2677C27.4841 24.9657 27.2392 24.7207 26.9372 24.7207Z" fill="#F35700"/>
<path d="M7.95294 11.2425C8.09678 11.2425 8.23789 11.184 8.33961 11.0823C8.44134 10.9805 8.49986 10.8394 8.49986 10.6956C8.49986 10.5518 8.44134 10.4107 8.33961 10.3089C8.23789 10.2072 8.09678 10.1487 7.95294 10.1487C7.8091 10.1487 7.668 10.2072 7.56627 10.3089C7.46454 10.4107 7.40602 10.5518 7.40602 10.6956C7.40602 10.84 7.46454 10.9805 7.56627 11.0823C7.668 11.184 7.8091 11.2425 7.95294 11.2425Z" fill="#F35700"/>
</g>
<defs>
<clipPath id="clip0">
<rect width="28" height="28" fill="white"/>
</clipPath>
</defs>
</svg>
