<svg width="20" height="20" viewBox="0 0 20 20" fill="none" xmlns="http://www.w3.org/2000/svg">
<g clip-path="url(#clip0)">
<path d="M19.6391 0H0.362882C0.162999 0 0.00100708 0.162031 0.00100708 0.361875V5.7984C0.00100708 5.99824 0.163038 6.16027 0.362882 6.16027C0.562726 6.16027 0.724757 5.99824 0.724757 5.7984V3.92867L2.68734 5.89125L0.724757 7.85383V6.98059C0.724757 6.78074 0.562726 6.61871 0.362882 6.61871C0.163038 6.61871 0.00100708 6.78074 0.00100708 6.98059V19.6382C0.00100708 19.838 0.163038 20 0.362882 20H19.6391C19.8389 20 20.001 19.838 20.001 19.6382V0.361875C20.001 0.162031 19.839 0 19.6391 0ZM18.6963 0.72375L16.8028 2.61719L14.9092 0.72375H18.6963ZM13.241 0.72375L11.3476 2.61719L9.45374 0.72375H13.241ZM11.9167 4.21004C12.058 4.35137 12.2871 4.35137 12.4284 4.21004C12.5697 4.06871 12.5697 3.83961 12.4284 3.69828L11.8592 3.12914L14.075 0.913398L19.0531 5.89125L16.8372 8.10715L13.2486 4.51852C13.1073 4.37719 12.8781 4.37719 12.7369 4.51852C12.5955 4.65984 12.5955 4.88895 12.7369 5.03027L13.5979 5.89129L11.3821 8.10719L6.40405 3.12914L8.6198 0.913398L11.9167 4.21004ZM10.8703 8.61891L5.89226 13.597L3.67644 11.3811L8.65444 6.40309L10.8703 8.61891ZM7.78585 0.72375L5.89241 2.61719L3.99866 0.72375H7.78585ZM0.724757 0.72375H2.33062L0.724757 2.32961V0.72375ZM0.948976 3.12895L3.16456 0.913359L8.14265 5.89125L5.92675 8.10711L0.948976 3.12895ZM0.724757 8.87703C0.725577 8.87625 0.726437 8.87559 0.727218 8.87481L3.19909 6.40297L5.41483 8.61891L0.724757 13.3092V8.87703ZM0.724757 14.9083L2.68745 16.871L0.724757 18.8332V14.9083ZM1.30534 19.2762L3.19929 17.3827L5.0928 19.2762H1.30534ZM0.948976 14.1089L3.16472 11.8929L8.14265 16.8708L5.92675 19.0867L0.948976 14.1089ZM6.76081 19.2762L8.65444 17.3826L10.5481 19.2762H6.76081ZM6.40401 14.1087L8.61991 11.8929L13.5979 16.8709L11.3821 19.0868L6.40401 14.1087ZM12.216 19.2762L14.1097 17.3826L16.0033 19.2762H12.216ZM11.8593 14.1087L12.5944 13.3736C12.7358 13.2322 12.7358 13.0031 12.5944 12.8618C12.4531 12.7205 12.224 12.7205 12.0827 12.8618L11.3475 13.597L9.13163 11.3811L14.1096 6.40305L16.3255 8.61895L12.8064 12.138C12.6651 12.2794 12.6651 12.5085 12.8064 12.6498C12.9478 12.7911 13.1769 12.7911 13.3182 12.6498L14.0751 11.8929L19.0531 16.8709L16.8373 19.0867L11.8593 14.1087ZM19.2772 19.2762H17.6713L19.2772 17.6704V19.2762ZM19.2772 16.0713L17.3146 14.1088L19.2772 12.1458V16.0713ZM19.2743 11.1252L16.8029 13.5971L14.5869 11.3811L19.2772 6.69082V11.1225H19.2772C19.2763 11.1234 19.2753 11.1242 19.2743 11.1252ZM19.2773 5.09152L17.3147 3.12895L19.2773 1.16637V5.09152Z" fill="#D7C5B3"/>
</g>
<defs>
<clipPath id="clip0">
<rect width="20" height="20" fill="white"/>
</clipPath>
</defs>
</svg>
