<svg width="20" height="20" viewBox="0 0 20 20" fill="none" xmlns="http://www.w3.org/2000/svg">
<path d="M16.3338 4.73206L13.0971 7.96875H15.3125C15.744 7.96875 16.0938 8.31848 16.0938 8.75C16.0938 9.18152 15.744 9.53125 15.3125 9.53125H12.3828C11.3058 9.53125 10.4297 8.65509 10.4297 7.57812V4.64844C10.4297 4.21692 10.7794 3.86719 11.2109 3.86719C11.6425 3.86719 11.9922 4.21692 11.9922 4.64844V6.86386L15.2287 3.62732C15.5339 3.32214 16.0286 3.32214 16.3336 3.62732C16.6388 3.93234 16.6388 4.42703 16.3338 4.73206ZM8.82812 16.0156C9.25964 16.0156 9.60938 15.6659 9.60938 15.2344V12.3047C9.60938 11.2277 8.73322 10.3516 7.65625 10.3516H4.72656C4.29504 10.3516 3.94531 10.7013 3.94531 11.1328C3.94531 11.5643 4.29504 11.9141 4.72656 11.9141H6.94199L3.70529 15.1508C3.40027 15.4558 3.40027 15.9505 3.70529 16.2555C3.85788 16.4081 4.05792 16.4844 4.25781 16.4844C4.4577 16.4844 4.65775 16.4081 4.81033 16.2555L8.04688 13.019V15.2344C8.04688 15.6659 8.39661 16.0156 8.82812 16.0156ZM19.2188 13.75C19.6503 13.75 20 13.4003 20 12.9688V3.125C20 1.40182 18.5982 0 16.875 0H3.125C1.40182 0 0 1.40182 0 3.125V16.875C0 18.5982 1.40182 20 3.125 20H16.875C18.5982 20 20 18.5982 20 16.875C20 16.4435 19.6503 16.0938 19.2188 16.0938C18.7872 16.0938 18.4375 16.4435 18.4375 16.875C18.4375 17.7365 17.7365 18.4375 16.875 18.4375H3.125C2.26349 18.4375 1.5625 17.7365 1.5625 16.875V3.125C1.5625 2.26349 2.26349 1.5625 3.125 1.5625H16.875C17.7365 1.5625 18.4375 2.26349 18.4375 3.125V12.9688C18.4375 13.4003 18.7872 13.75 19.2188 13.75Z" fill="#D7C5B3"/>
</svg>
