<svg width="27" height="26" viewBox="0 0 27 26" fill="none" xmlns="http://www.w3.org/2000/svg">
<g clip-path="url(#clip0)">
<path d="M25.7921 15.1328H23.5314V14.433C23.5314 14.1525 23.3014 13.9252 23.0176 13.9252C22.7339 13.9252 22.5039 14.1525 22.5039 14.433V15.1328H13.6667V14.433C13.6667 14.1525 13.4367 13.9252 13.1529 13.9252C12.8692 13.9252 12.6392 14.1525 12.6392 14.433V15.1328H3.80202V14.433C3.80202 14.1525 3.57202 13.9252 3.28824 13.9252C3.00445 13.9252 2.77445 14.1525 2.77445 14.433V15.1328H0.513787C0.23 15.1328 0 15.3601 0 15.6406C0 15.9211 0.23 16.1484 0.513787 16.1484H25.7921C26.0759 16.1484 26.3059 15.9211 26.3059 15.6406C26.3059 15.3601 26.0759 15.1328 25.7921 15.1328Z" fill="#F35700"/>
<path d="M25.7921 12.8984C25.9272 12.8984 26.0598 12.8441 26.1554 12.7497C26.2509 12.6552 26.3059 12.5243 26.3059 12.3906C26.3059 12.2571 26.2509 12.126 26.1554 12.0316C26.0598 11.9372 25.9272 11.8828 25.7921 11.8828C25.657 11.8828 25.5244 11.9372 25.4288 12.0316C25.3333 12.126 25.2783 12.2571 25.2783 12.3906C25.2783 12.5243 25.3333 12.6552 25.4288 12.7497C25.5244 12.8441 25.657 12.8984 25.7921 12.8984Z" fill="#F35700"/>
<path d="M0.513787 12.8984H7.71343V13.5475C7.71343 13.828 7.94343 14.0553 8.22721 14.0553C8.5108 14.0553 8.741 13.828 8.741 13.5475V12.8984H17.5781V13.5475C17.5781 13.828 17.8081 14.0553 18.0919 14.0553C18.3755 14.0553 18.6057 13.828 18.6057 13.5475V12.8984H23.737C24.0207 12.8984 24.2507 12.6711 24.2507 12.3906C24.2507 12.1101 24.0207 11.8828 23.737 11.8828H0.513787C0.23 11.8828 0 12.1101 0 12.3906C0 12.6711 0.23 12.8984 0.513787 12.8984Z" fill="#F35700"/>
<path d="M3.69706 17.2484C3.55496 17.0056 3.24067 16.9227 2.99501 17.0631C2.74956 17.2035 2.66567 17.5144 2.80776 17.757C3.34543 18.6756 3.34543 19.8168 2.80776 20.7354C2.08625 21.9677 2.08625 23.4986 2.80776 24.7311C2.9031 24.8937 3.07549 24.9846 3.25291 24.9846C3.34022 24.9846 3.42872 24.9626 3.50981 24.9161C3.75546 24.7757 3.83935 24.4651 3.69726 24.2223C3.15939 23.3038 3.15939 22.1624 3.69726 21.244C4.41857 20.0116 4.41857 18.4806 3.69706 17.2484Z" fill="#F35700"/>
<path d="M23.4981 17.2484C23.356 17.0056 23.0417 16.9227 22.7961 17.0631C22.5504 17.2035 22.4665 17.5142 22.6086 17.757C23.1465 18.6756 23.1465 19.8168 22.6086 20.7352C21.8873 21.9677 21.8873 23.4986 22.6086 24.7311C22.704 24.8937 22.8766 24.9846 23.054 24.9846C23.1413 24.9846 23.2298 24.9626 23.3109 24.9161C23.5563 24.7757 23.6402 24.4651 23.4981 24.2223C22.9604 23.3038 22.9604 22.1626 23.4981 21.244C24.2196 20.0116 24.2196 18.4806 23.4981 17.2484Z" fill="#F35700"/>
<path d="M10.2974 17.2484C10.1553 17.0056 9.84103 16.9227 9.59537 17.0631C9.34992 17.2035 9.26603 17.5144 9.40812 17.757C9.94579 18.6756 9.94579 19.8168 9.40812 20.7354C8.68661 21.9677 8.68661 23.4986 9.40812 24.7311C9.50345 24.8937 9.67585 24.9846 9.85327 24.9846C9.94057 24.9846 10.0291 24.9626 10.1102 24.9161C10.3558 24.7757 10.4397 24.4651 10.2976 24.2223C9.75974 23.3038 9.75974 22.1624 10.2976 21.244C11.0189 20.0116 11.0189 18.4806 10.2974 17.2484Z" fill="#F35700"/>
<path d="M16.4538 18.011C16.5309 18.011 16.6094 17.9938 16.6832 17.9573C16.9365 17.8321 17.0395 17.5278 16.9136 17.2773C16.7936 17.0371 16.5028 16.929 16.2507 17.0359C15.9898 17.1464 15.869 17.4449 15.9808 17.7026C15.9862 17.7151 15.9924 17.7276 15.9988 17.7397C16.0904 17.9119 16.2688 18.011 16.4538 18.011Z" fill="#F35700"/>
<path d="M16.9572 19.0279C16.6746 19.0047 16.4261 19.2126 16.4026 19.4921C16.3657 19.9334 16.2331 20.3518 16.0085 20.7352C15.287 21.9676 15.287 23.4986 16.0085 24.7309C16.1036 24.8935 16.2762 24.9846 16.4536 24.9846C16.5409 24.9846 16.6294 24.9624 16.7105 24.9161C16.9562 24.7757 17.0401 24.4651 16.8978 24.2223C16.3601 23.3036 16.3601 22.1624 16.8978 21.244C17.1948 20.7366 17.3778 20.1598 17.4268 19.5758C17.4501 19.2963 17.24 19.0509 16.9572 19.0279Z" fill="#F35700"/>
<path d="M1.58672 3.65173C1.8111 3.82332 2.13382 3.78265 2.30743 3.56088L2.74214 3.00526C2.76341 3.44266 2.89025 3.87073 3.11242 4.2504C3.42591 4.78558 3.42591 5.4503 3.11242 5.98549L2.80776 6.506C2.12278 7.67575 2.12278 9.12936 2.80776 10.2991C2.9031 10.4618 3.0755 10.5526 3.25291 10.5526C3.34022 10.5526 3.42872 10.5306 3.50981 10.4844C3.75546 10.3439 3.83935 10.0333 3.69726 9.79051C3.19591 8.93437 3.19591 7.87074 3.69726 7.0146L4.00192 6.49409C4.49885 5.6451 4.49885 4.59059 4.00192 3.74179C3.87227 3.52022 3.7948 3.27266 3.77312 3.01855L4.1976 3.56088C4.29875 3.69022 4.45068 3.75806 4.60421 3.75806C4.71399 3.75806 4.82478 3.72334 4.9183 3.65173C5.14268 3.48015 5.18383 3.16118 5.01022 2.93941L3.65872 1.21284C3.56139 1.08847 3.41146 1.01587 3.25251 1.01587C3.09336 1.01587 2.94324 1.08847 2.8461 1.21284L1.4946 2.93941C1.321 3.16118 1.36214 3.48015 1.58672 3.65173Z" fill="#F35700"/>
<path d="M8.18686 3.65169C8.41144 3.82327 8.73396 3.78261 8.90757 3.56084L9.34248 3.00522C9.36375 3.44261 9.49039 3.87048 9.71277 4.25035C10.0261 4.78554 10.0261 5.45026 9.71277 5.98524L9.40811 6.50575C8.72312 7.6757 8.72312 9.12912 9.40811 10.2991C9.50324 10.4617 9.67584 10.5526 9.85325 10.5526C9.94056 10.5526 10.0291 10.5306 10.1101 10.4843C10.3556 10.3437 10.4395 10.0331 10.2974 9.79047C9.79626 8.93433 9.79626 7.8705 10.2974 7.01456L10.6023 6.49405C11.0992 5.64505 11.0992 4.59055 10.6023 3.74174C10.4724 3.52017 10.3949 3.27261 10.3735 3.01851L10.7977 3.56064C10.8991 3.68997 11.051 3.75781 11.2046 3.75781C11.3143 3.75781 11.4251 3.7231 11.5186 3.65169C11.743 3.4801 11.7842 3.16113 11.6106 2.93936L10.2591 1.2128C10.1617 1.08842 10.0118 1.01562 9.85285 1.01562C9.6937 1.01562 9.54378 1.08842 9.44644 1.2128L8.09494 2.93936C7.92134 3.16113 7.96248 3.4801 8.18686 3.65169Z" fill="#F35700"/>
<path d="M14.7872 3.65169C14.881 3.7233 14.9915 3.75781 15.1013 3.75781C15.2549 3.75781 15.4068 3.69017 15.5081 3.56084L15.9428 3.00522C15.9641 3.44261 16.0908 3.87068 16.3131 4.25035C16.6264 4.78554 16.6264 5.45026 16.3131 5.98544L16.0085 6.50595C15.3235 7.6757 15.3235 9.12932 16.0085 10.2991C16.1038 10.4617 16.2762 10.5528 16.4536 10.5528C16.5409 10.5528 16.6294 10.5306 16.7105 10.4843C16.9562 10.3439 17.0401 10.0333 16.8978 9.79047C16.3966 8.93433 16.3966 7.8707 16.8978 7.01456L17.2026 6.49405C17.6996 5.64525 17.6996 4.59055 17.2026 3.74174C17.073 3.52017 16.9953 3.27261 16.9738 3.01851L17.3983 3.56084C17.5719 3.78261 17.8944 3.82327 18.119 3.65169C18.3434 3.4801 18.3845 3.16113 18.2109 2.93936L16.8594 1.2128C16.7621 1.08842 16.6122 1.01562 16.4532 1.01562C16.2941 1.01562 16.1441 1.08842 16.0468 1.2128L14.6953 2.93936C14.5217 3.16113 14.5629 3.4801 14.7872 3.65169Z" fill="#F35700"/>
<path d="M21.3876 3.65169C21.4811 3.7233 21.5919 3.75781 21.7017 3.75781C21.8552 3.75781 22.0071 3.69017 22.1085 3.56084L22.5432 3.00522C22.5645 3.44261 22.6911 3.87048 22.9135 4.25035C23.2268 4.78554 23.2268 5.45026 22.9135 5.98524L22.6088 6.50575C21.9238 7.6757 21.9238 9.12912 22.6088 10.2991C22.7039 10.4617 22.8765 10.5526 23.054 10.5526C23.1413 10.5526 23.2298 10.5306 23.3109 10.4843C23.5565 10.3437 23.6404 10.0331 23.4981 9.79047C22.997 8.93433 22.997 7.8705 23.4981 7.01456L23.803 6.49405C24.2999 5.64505 24.2999 4.59055 23.803 3.74174C23.6733 3.52017 23.5959 3.27261 23.5742 3.01851L23.9987 3.56064C24.1723 3.78261 24.495 3.82327 24.7194 3.65169C24.9437 3.4801 24.9849 3.16113 24.8113 2.93936L23.46 1.2128C23.3626 1.08842 23.2125 1.01562 23.0536 1.01562C22.8946 1.01562 22.7445 1.08842 22.6472 1.2128L21.2957 2.93936C21.1221 3.16113 21.1632 3.4801 21.3876 3.65169Z" fill="#F35700"/>
</g>
<defs>
<clipPath id="clip0">
<rect width="26.3059" height="26" fill="white"/>
</clipPath>
</defs>
</svg>
