<svg width="26" height="24" viewBox="0 0 26 24" fill="none" xmlns="http://www.w3.org/2000/svg">
<path d="M0 22.9158H26V23.6034H0V22.9158Z" fill="#F35700"/>
<path d="M0 21.0824H26V21.7699H0V21.0824Z" fill="#F35700"/>
<path d="M22.6575 7.70795C21.8452 7.89128 21.078 8.06443 19.4999 8.06443C17.9217 8.06443 17.1544 7.89128 16.3421 7.70795C15.5209 7.5226 14.6716 7.33093 12.9997 7.33093C11.3279 7.33093 10.4786 7.5226 9.65741 7.70795C8.84516 7.89128 8.07796 8.06443 6.49989 8.06443C4.92181 8.06443 4.15456 7.89128 3.34231 7.70795C2.52108 7.5226 1.67187 7.33093 0 7.33093V8.01858C1.57808 8.01858 2.34533 8.19173 3.15757 8.37506C3.97881 8.5604 4.82802 8.75208 6.49989 8.75208C8.1717 8.75208 9.02092 8.5604 9.84215 8.37506C10.6544 8.19173 11.4216 8.01858 12.9997 8.01858C14.5779 8.01858 15.3452 8.19173 16.1574 8.37506C16.9787 8.5604 17.8279 8.75208 19.4999 8.75208C21.1718 8.75208 22.021 8.5604 22.8423 8.37506C23.6546 8.19173 24.4218 8.01858 26 8.01858V7.33093C24.328 7.33093 23.4788 7.52256 22.6575 7.70795Z" fill="#F35700"/>
<path d="M13 6.64355C14.0171 6.64355 14.9307 6.16323 15.3844 5.39005C15.8043 4.6744 15.7518 3.84424 15.244 3.16943L13 0.1875L10.756 3.16938C10.2481 3.8442 10.1956 4.67435 10.6155 5.39C11.0692 6.16323 11.9829 6.64355 13 6.64355ZM11.386 3.55574L13 1.41112L14.6139 3.55574C14.9656 4.02305 15.0011 4.57433 14.7112 5.06823C14.39 5.6158 13.7342 5.956 13 5.956C12.2657 5.956 11.6099 5.61584 11.2887 5.06823C10.9989 4.57433 11.0344 4.02305 11.386 3.55574Z" fill="#F35700"/>
<path d="M5.89061 5.72668C6.61582 5.72668 7.26795 5.38311 7.59244 4.83012C7.8948 4.31485 7.85706 3.71735 7.49164 3.23173L5.89061 1.10437L4.28959 3.23173C3.92416 3.7173 3.88648 4.31485 4.18879 4.83012C4.51328 5.38311 5.16541 5.72668 5.89061 5.72668ZM4.91968 3.61807L5.89061 2.32792L6.86155 3.61802C7.06874 3.89326 7.08976 4.21777 6.91929 4.50827C6.72718 4.83571 6.33302 5.03912 5.89061 5.03912C5.44821 5.03912 5.05405 4.83571 4.86194 4.50827C4.69147 4.21781 4.71254 3.89331 4.91968 3.61807Z" fill="#F35700"/>
<path d="M20.1093 5.72668C20.8345 5.72668 21.4867 5.38311 21.8112 4.83012C22.1135 4.31485 22.0758 3.71735 21.7104 3.23173L20.1093 1.10437L18.5083 3.23173C18.1429 3.7173 18.1052 4.31485 18.4075 4.83012C18.732 5.38311 19.3841 5.72668 20.1093 5.72668ZM19.1384 3.61807L20.1093 2.32792L21.0803 3.61802C21.2875 3.89326 21.3085 4.21777 21.138 4.50827C20.9459 4.83571 20.5517 5.03912 20.1093 5.03912C19.6669 5.03912 19.2728 4.83571 19.0807 4.50827C18.9102 4.21781 18.9313 3.89331 19.1384 3.61807Z" fill="#F35700"/>
<path d="M23.2077 15.3526H24.4257L22.1406 18.1028L19.8554 15.3526H21.0735L19.9194 9.62292H15.2123L14.0794 16.2693H15.2851L13 19.0196L10.7148 16.2693H11.9205L10.7876 9.62292H6.08054L4.92638 15.3526H6.14452L3.85937 18.1028L1.57422 15.3526H2.7923L1.63815 9.62292H0V10.3105H1.00247L1.23327 11.4564H0V12.144H1.37175L1.87956 14.665H0.0507812L3.85937 19.2488L7.66796 14.665H5.83917L6.34698 12.144H10.4467L11.0327 15.5818H9.19139L13 20.1655L16.8086 15.5818H14.9673L15.5533 12.144H19.653L20.1608 14.665H18.332L22.1406 19.2488L25.9492 14.665H24.1204L24.6282 12.144H26V11.4564H24.7667L24.9975 10.3105H26V9.62292H24.3618L23.2077 15.3526ZM6.48547 11.4564L6.71627 10.3105H10.1341L10.3294 11.4564H6.48547ZM15.6705 11.4564L15.8658 10.3105H19.2836L19.5144 11.4564H15.6705Z" fill="#F35700"/>
</svg>
